<?xml version="1.0" standalone="no"?><!DOCTYPE svg PUBLIC "-//W3C//DTD SVG 1.1//EN" "http://www.w3.org/Graphics/SVG/1.1/DTD/svg11.dtd"><svg t="1757398743886" class="icon" viewBox="0 0 1024 1024" version="1.1" xmlns="http://www.w3.org/2000/svg" p-id="1501" xmlns:xlink="http://www.w3.org/1999/xlink" width="200" height="200"><path d="M972.8 613.2736c0-124.5696-123.2896-225.9968-261.632-225.9968-146.6368 0-262.0928 101.5296-262.0928 225.9968 0 124.7232 115.456 225.9456 262.0416 225.9456 30.72 0 61.696-7.8336 92.4672-15.5648l84.48 46.7456-23.2448-77.824C926.72 745.728 972.8 683.52 972.8 613.3248z m-342.7328-34.56a34.816 34.816 0 0 1-30.208-17.664 35.584 35.584 0 0 1 0-35.2768 34.816 34.816 0 0 1 65.024 17.664c0 19.456-15.5648 35.2256-34.816 35.2768z m169.472-0.3072a35.072 35.072 0 0 1-34.816-35.2768c0-19.456 15.5648-35.2768 34.816-35.2768 19.3024 0 34.9696 15.8208 34.9696 35.328 0 19.456-15.6672 35.2256-34.9184 35.2256zM410.4704 153.6C241.1008 153.6 102.4 270.336 102.4 418.5088c0 85.504 46.1824 155.8016 123.2896 210.2784l-30.7712 93.696 107.6736-54.5792c38.5536 7.6288 69.4272 15.5648 107.9296 15.5648 9.728 0 19.2512-0.4096 28.7744-1.2288a234.1376 234.1376 0 0 1-9.5232-65.28c0-136.0896 115.6096-246.528 261.9392-246.528 10.0352 0 19.8656 0.7168 29.696 1.8432-26.7264-125.44-159.4368-218.624-310.8864-218.624L410.4704 153.6z m-103.424 213.76a41.8304 41.8304 0 0 1-36.352-21.1968 42.752 42.752 0 0 1 0.0512-42.3424 41.8304 41.8304 0 0 1 78.1824 21.1456 42.0864 42.0864 0 0 1-41.8816 42.3424v0.0512z m215.1424 0a42.1376 42.1376 0 0 1-41.8816-42.3424c0-23.3984 18.7392-42.3424 41.8816-42.3424 23.1424 0 41.8816 18.944 41.8816 42.2912a42.0864 42.0864 0 0 1-41.8816 42.3424v0.0512z" fill="#67C23A" p-id="1502"></path></svg>